<?xml version="1.0" encoding="utf-8"?>
<!-- Generator: Adobe Illustrator 18.0.0, SVG Export Plug-In . SVG Version: 6.00 Build 0)  -->
<!DOCTYPE svg PUBLIC "-//W3C//DTD SVG 1.1//EN" "http://www.w3.org/Graphics/SVG/1.1/DTD/svg11.dtd">
<svg version="1.1" id="Layer_1" xmlns="http://www.w3.org/2000/svg" xmlns:xlink="http://www.w3.org/1999/xlink" x="0px" y="0px"
	 viewBox="207.9 0 543.5 559.8" enable-background="new 207.9 0 543.5 559.8" xml:space="preserve">
<g>
	<path fill="#EFEFEF" d="M461.3,54.4v-39h-14.1v-5c1.9,0,3.6-0.2,5.3-0.5c1.7-0.2,3.4-0.7,4.8-1.7c1.4-0.7,2.6-1.9,3.6-3.1
		c1-1.4,1.7-3.1,1.9-5h5v54.4H461.3z M481.9,11.5c0.7-2.4,1.9-4.3,3.4-6s3.4-3.1,5.7-4.1c2.2-1,4.8-1.4,7.7-1.4c2.4,0,4.6,0.2,6.7,1
		c2.2,0.7,3.8,1.7,5.5,2.9c1.4,1.2,2.6,2.9,3.6,4.8c1,1.9,1.4,4.1,1.4,6.7c0,2.4-0.5,4.6-1.2,6.5s-1.7,3.6-2.9,5s-2.6,2.9-4.3,3.8
		c-1.7,1.2-3.1,2.4-4.8,3.4s-3.4,1.9-5,3.1c-1.7,1.2-3.1,2.2-4.6,3.1c-1.4,1.2-2.6,2.4-3.6,3.6c-1,1.2-1.7,2.9-1.9,4.6h27.8v5.7H480
		c0.2-3.1,0.7-6,1.7-8.1c1-2.2,1.9-4.3,3.4-6c1.4-1.7,2.9-3.1,4.8-4.6c1.7-1.2,3.6-2.4,5.5-3.6c2.4-1.4,4.3-2.6,6-3.8
		c1.7-1.2,3.1-2.4,4.3-3.6c1.2-1.2,1.9-2.6,2.6-4.1c0.7-1.4,1-3.1,1-5c0-1.4-0.2-2.9-1-4.1c-0.5-1.2-1.2-2.2-2.2-3.1
		c-1-1-2.2-1.4-3.4-1.9s-2.6-0.7-4.1-0.7c-1.9,0-3.6,0.5-4.8,1.2c-1.4,0.7-2.4,1.9-3.4,3.1c-1,1.2-1.4,2.6-1.9,4.3s-0.5,3.1-0.5,4.8
		h-6.5C481,16.5,481.2,13.9,481.9,11.5z M607.4,91.5v-39h-14.1v-5.3c1.9,0,3.6-0.2,5.3-0.5s3.4-0.7,4.8-1.7c1.4-0.7,2.6-1.9,3.6-3.1
		c1-1.4,1.7-3.1,1.9-5h5v54.4h-6.5L607.4,91.5z M685,141.8c0.7-2.4,1.9-4.3,3.4-6c1.4-1.7,3.4-3.1,5.7-4.1c2.2-1,4.8-1.4,7.7-1.4
		c2.4,0,4.6,0.2,6.7,1s3.8,1.7,5.5,2.9c1.4,1.2,2.6,2.9,3.6,4.8s1.4,4.1,1.4,6.7c0,2.4-0.5,4.6-1.2,6.5c-0.7,1.9-1.7,3.6-2.9,5
		c-1.2,1.4-2.6,2.9-4.3,3.8c-1.7,1.2-3.1,2.4-4.8,3.4s-3.4,1.9-5,3.1s-3.1,2.2-4.6,3.1c-1.4,1.2-2.6,2.4-3.6,3.6s-1.7,2.9-1.9,4.6
		h27.8v5.7h-35.7c0.2-3.1,0.7-6,1.7-8.1c1-2.2,1.9-4.3,3.4-6c1.4-1.7,2.9-3.1,4.8-4.6c1.7-1.2,3.6-2.4,5.5-3.6
		c2.4-1.4,4.3-2.6,6-3.8s3.1-2.4,4.3-3.6c1.2-1.2,1.9-2.6,2.6-4.1s1-3.1,1-5c0-1.4-0.2-2.9-1-4.1c-0.5-1.2-1.2-2.2-2.2-3.1
		c-1-1-2.2-1.4-3.4-1.9c-1.2-0.5-2.6-0.7-4.1-0.7c-1.9,0-3.6,0.5-4.8,1.2c-1.4,0.7-2.4,1.9-3.4,3.1c-1,1.2-1.4,2.6-1.9,4.3
		c-0.5,1.7-0.5,3.1-0.5,4.8h-6.5C684.1,146.6,684.3,144.2,685,141.8L685,141.8z M729.8,275.7h2.2c1.4,0,2.6-0.2,3.8-0.5
		c1.2-0.2,2.4-1,3.4-1.7s1.7-1.7,2.2-2.9c0.5-1.2,1-2.4,1-3.8c0-2.9-1-5-2.9-6.5c-1.9-1.4-4.1-2.2-6.9-2.2c-1.7,0-3.4,0.2-4.6,1
		s-2.4,1.4-3.1,2.6c-1,1-1.4,2.4-1.9,3.8c-0.5,1.4-0.7,2.9-0.7,4.6h-6.5c0-2.6,0.5-5,1.2-7.2c0.7-2.2,1.9-4.1,3.1-5.5
		c1.4-1.4,3.1-2.6,5.3-3.6c2.2-1,4.6-1.2,7.2-1.2c2.4,0,4.6,0.2,6.5,1s3.8,1.4,5.3,2.6c1.4,1.2,2.6,2.6,3.6,4.6s1.2,4.1,1.2,6.5
		c0,2.4-0.7,4.6-2.2,6.5s-3.1,3.4-5.3,4.3v0.2c3.4,0.7,5.7,2.4,7.4,4.8c1.7,2.4,2.4,5.3,2.4,8.6c0,2.6-0.5,5-1.4,7.2
		c-1,2.2-2.4,3.8-4.1,5.3c-1.7,1.4-3.6,2.4-6,3.1c-2.4,0.7-4.8,1-7.2,1c-2.9,0-5.3-0.5-7.4-1.2c-2.2-0.7-4.1-1.9-5.7-3.4
		c-1.7-1.4-2.9-3.4-3.6-5.5c-1-2.2-1.2-4.8-1.2-7.4h6.5c0,3.6,1.2,6.5,3.1,8.6c1.9,2.2,4.8,3.4,8.6,3.4c1.7,0,3.1-0.2,4.6-0.7
		c1.4-0.5,2.6-1.2,3.8-2.2c1.2-1,1.9-1.9,2.6-3.4s1-2.9,1-4.3c0-1.7-0.2-3.1-1-4.6c-0.7-1.4-1.4-2.4-2.4-3.4c-1-1-2.2-1.7-3.6-1.9
		c-1.4-0.2-2.9-0.7-4.6-0.7c-1.4,0-2.6,0-3.8,0.2v-6.5C729.3,275.7,729.6,275.7,729.8,275.7L729.8,275.7z M721.7,416.3v5.7h-7.4
		v12.7H708V422h-24v-6.2l24.7-35.4h5.3v35.9L721.7,416.3L721.7,416.3z M708.3,389.7l-18.2,26.6h18.2V389.7z M600.7,477.6l-2.9,15.6
		l0.2,0.2c1.2-1.4,2.6-2.4,4.6-2.9c1.9-0.7,3.8-1,5.5-1c2.4,0,4.8,0.5,6.7,1.2c2.2,0.7,4.1,1.9,5.5,3.6c1.7,1.7,2.9,3.6,3.8,5.7
		c1,2.2,1.4,5,1.4,8.1c0,2.4-0.5,4.6-1.2,6.7s-1.9,4.1-3.6,5.7s-3.6,3.1-6,4.1s-5,1.4-8.4,1.4c-2.4,0-4.6-0.2-6.7-1
		c-2.2-0.7-3.8-1.7-5.5-2.9c-1.7-1.2-2.9-2.9-3.8-4.8s-1.4-4.1-1.4-6.7h6.5c0,1.4,0.5,2.6,1,3.8c0.5,1.2,1.4,2.2,2.4,3.1
		c1,1,2.2,1.7,3.6,2.2c1.4,0.5,2.9,0.7,4.6,0.7c1.4,0,3.1-0.2,4.3-0.7c1.4-0.5,2.6-1.4,3.6-2.4s1.9-2.4,2.4-4.1c0.7-1.7,1-3.6,1-5.7
		c0-1.7-0.2-3.4-1-5c-0.7-1.7-1.4-2.9-2.4-3.8s-2.4-1.9-3.8-2.6s-3.1-1-5-1c-2.2,0-4.1,0.5-5.7,1.4c-1.7,1-3.1,2.2-4.3,3.8l-5.5-0.2
		l5-28.3h26.8v5.7h-21.6V477.6z M487.4,512.8c-1.7-1.4-3.6-2.2-6.2-2.2c-2.9,0-5,0.7-6.7,1.9c-1.7,1.2-3.1,3.1-3.8,5
		c-0.7,1.9-1.7,4.3-1.9,6.7c-0.2,2.4-0.5,4.6-0.7,6.7l0.2,0.2c1.4-2.4,3.4-4.3,5.7-5.5c2.2-1.2,4.8-1.7,7.9-1.7c2.6,0,5,0.5,6.9,1.4
		c2.2,1,3.8,2.2,5.3,3.8c1.4,1.7,2.4,3.4,3.4,5.5c0.7,2.2,1.2,4.6,1.2,6.9c0,1.9-0.2,4.1-1,6.2s-1.7,4.1-3.1,5.7
		c-1.4,1.7-3.4,3.1-5.5,4.3c-2.4,1.2-5.3,1.7-8.6,1.7c-4.1,0-7.2-0.7-9.8-2.4c-2.6-1.7-4.3-3.8-5.7-6.2c-1.4-2.6-2.2-5.3-2.6-8.4
		s-0.7-6-0.7-8.9c0-3.8,0.2-7.4,1-10.8c0.7-3.6,1.7-6.7,3.4-9.3c1.4-2.6,3.6-4.8,6.2-6.5c2.6-1.7,5.7-2.4,9.6-2.4
		c4.6,0,8.1,1.2,10.8,3.6s4.1,5.7,4.6,10.3h-6.5C490.1,516.2,489.1,514.3,487.4,512.8L487.4,512.8z M475.7,530.8
		c-1.4,0.7-2.6,1.4-3.6,2.6c-1,1.2-1.7,2.4-2.2,3.8c-0.5,1.4-0.7,3.1-0.7,4.8s0.2,3.4,0.7,4.8c0.5,1.4,1.2,2.9,2.2,3.8
		c1,1,2.2,1.9,3.6,2.6c1.4,0.7,3.1,1,4.8,1c1.7,0,3.4-0.2,4.8-1s2.4-1.4,3.4-2.6c1-1.2,1.7-2.4,2.2-3.8c0.5-1.4,0.7-2.9,0.7-4.6
		s-0.2-3.4-0.7-4.8c-0.5-1.4-1.2-2.9-1.9-3.8c-1-1.2-2.2-1.9-3.4-2.6c-1.2-0.7-2.9-1-4.8-1C478.6,529.8,477.1,530.3,475.7,530.8
		L475.7,530.8z M364.1,487.2c-2.4,3.8-4.6,7.7-6.5,12c-1.9,4.3-3.4,8.6-4.6,13.2c-1.2,4.6-1.9,8.9-2.2,13.2h-7.2
		c0.2-4.6,1-9.1,2.2-13.4c1.2-4.3,2.6-8.6,4.6-12.5c1.9-3.8,4.1-7.9,6.5-11.5c2.4-3.6,5-6.9,7.9-9.8h-28v-6.5H372v5.5
		C369.1,480.2,366.5,483.4,364.1,487.2L364.1,487.2z M245,388.3c1-1.7,2.2-3.1,3.6-4.3c1.4-1.2,3.1-2.2,5-2.6c1.9-0.7,3.8-1,6-1
		c2.9,0,5.5,0.5,7.7,1.2c2.2,0.7,3.8,1.9,5,3.1c1.2,1.2,2.2,2.9,2.9,4.6s1,3.4,1,5c0,2.4-0.7,4.8-1.9,6.7s-3.1,3.6-5.5,4.6
		c3.4,1,5.7,2.6,7.2,5s2.4,5.3,2.4,8.6c0,2.6-0.5,5-1.4,6.9c-1,2.2-2.2,3.8-3.8,5.3c-1.7,1.4-3.6,2.4-5.7,3.1c-2.2,0.7-4.6,1-6.9,1
		c-2.6,0-5-0.2-7.2-1c-2.2-0.7-4.3-1.7-5.7-3.1c-1.4-1.4-2.9-3.1-3.8-5.3c-1-2.2-1.4-4.6-1.4-7.2c0-3.1,0.7-6,2.4-8.4
		s4.1-4.1,6.9-5.3c-2.4-1-4.1-2.4-5.5-4.6c-1.4-2.2-2.2-4.3-2.2-6.7C243.6,391.9,244.1,389.9,245,388.3L245,388.3z M252,427.1
		c2.2,1.9,5,2.9,8.4,2.9c1.7,0,3.1-0.2,4.6-0.7s2.6-1.2,3.6-2.2c1-1,1.7-2.2,2.4-3.4s0.7-2.6,0.7-4.3c0-1.4-0.2-2.9-1-4.1
		c-0.7-1.2-1.4-2.4-2.4-3.4c-1-1-2.2-1.7-3.6-2.2c-1.4-0.5-2.9-0.7-4.3-0.7c-1.7,0-3.1,0.2-4.6,0.7s-2.6,1.2-3.6,2.2
		c-1,1-1.9,1.9-2.4,3.4c-0.5,1.2-1,2.6-1,4.3C248.6,422.5,249.6,425.1,252,427.1L252,427.1z M251.3,398.3c0.5,1.2,1.2,1.9,2.2,2.6
		s1.9,1.2,3.1,1.7c1.2,0.2,2.4,0.5,3.8,0.5c2.6,0,4.8-0.7,6.5-2.4c1.7-1.4,2.6-3.6,2.6-6.5c0-2.9-1-4.8-2.6-6.2
		c-1.7-1.4-3.8-2.2-6.5-2.2c-1.2,0-2.4,0.2-3.6,0.5c-1.2,0.2-2.2,1-3.1,1.7s-1.4,1.7-1.9,2.6c-0.5,1-0.7,2.2-0.7,3.6
		C250.5,395.9,250.8,397.1,251.3,398.3z M219.4,299.6c1.9,1.4,4.1,2.2,6.7,2.2c4.1,0,6.9-1.7,8.9-5.3s3.1-8.6,3.4-15.8l-0.2-0.2
		c-1.2,2.4-2.9,4.1-5.3,5.5c-2.2,1.4-4.8,1.9-7.4,1.9c-2.9,0-5.3-0.5-7.4-1.4c-2.2-1-3.8-2.2-5.5-3.8c-1.4-1.7-2.6-3.6-3.4-5.7
		s-1.2-4.8-1.2-7.4c0-2.6,0.5-5,1.2-7.2c1-2.2,2.2-4.1,3.6-5.5c1.7-1.7,3.6-2.9,5.7-3.6c2.2-1,4.6-1.2,7.2-1.2c2.6,0,5,0.5,7.2,1.2
		c2.2,0.7,4.3,2.2,6,4.1c1.7,1.9,3.1,4.6,4.1,7.9s1.4,7.7,1.4,12.7c0,9.3-1.4,16.5-4.6,21.6c-2.9,5-7.7,7.7-14.4,7.7
		c-4.6,0-8.4-1.2-11.3-3.4c-2.9-2.2-4.8-5.7-5-10.5h6.5C216.5,296,217.7,298.2,219.4,299.6L219.4,299.6z M236.6,265.6
		c-0.5-1.4-1.2-2.9-2.2-3.8c-1-1-2.2-2.2-3.6-2.6c-1.4-0.7-2.9-1-4.8-1s-3.6,0.2-5,1c-1.4,0.7-2.4,1.7-3.4,2.9s-1.4,2.6-1.9,4.1
		c-0.5,1.4-0.5,3.1-0.5,4.8c0,1.4,0.2,2.9,0.7,4.3c0.5,1.4,1.2,2.6,2.2,3.6s2.2,1.9,3.4,2.6c1.2,0.7,2.6,1,4.3,1
		c1.7,0,3.1-0.2,4.6-1s2.6-1.4,3.6-2.6s1.7-2.4,2.2-3.8c0.5-1.4,0.7-2.9,0.7-4.6C237.4,268.7,237.1,267.1,236.6,265.6z M241.2,182
		v-38.8h-13.9V138c1.9,0,3.6-0.2,5.3-0.5c1.7-0.2,3.4-0.7,4.8-1.7c1.4-0.7,2.6-1.9,3.6-3.1c1-1.4,1.7-3.1,1.9-5h5V182
		C247.9,182,241.2,182,241.2,182z M261.1,149.2c0-2.2,0.2-4.3,0.7-6.2c0.5-2.2,1-4.1,1.7-5.7c0.7-1.9,1.9-3.4,3.1-4.8
		c1.4-1.4,3.1-2.4,5-3.4s4.6-1.2,7.2-1.2c2.9,0,5.3,0.5,7.2,1.2c1.9,0.7,3.6,1.9,5,3.4c1.4,1.4,2.4,2.9,3.1,4.8
		c0.7,1.9,1.4,3.8,1.7,5.7c0.5,2.2,0.7,4.1,0.7,6.2s0.2,4.3,0.2,6.2c0,1.9,0,4.1-0.2,6.2c-0.2,2.2-0.2,4.3-0.7,6.2
		c-0.5,2.2-1,4.1-1.7,5.7c-0.7,1.7-1.9,3.4-3.1,4.8c-1.4,1.4-2.9,2.4-5,3.4c-2.2,1-4.3,1.2-7.2,1.2c-2.9,0-5.3-0.5-7.2-1.2
		c-1.9-0.7-3.6-1.9-5-3.4c-1.4-1.4-2.4-2.9-3.1-4.8c-0.7-1.9-1.4-3.8-1.7-5.7c-0.5-2.2-0.7-4.1-0.7-6.2c0-2.2-0.2-4.3-0.2-6.2
		C261.1,153.5,261.1,151.4,261.1,149.2z M268,162.2c0.2,2.6,0.5,4.8,1.2,7.2c0.7,2.2,1.9,4.1,3.4,5.7c1.4,1.7,3.6,2.4,6.5,2.4
		c2.9,0,4.8-0.7,6.5-2.4c1.7-1.7,2.6-3.4,3.4-5.7c0.7-2.2,1.2-4.6,1.2-7.2c0.2-2.6,0.2-4.8,0.2-6.9v-4.3c0-1.7-0.2-3.1-0.5-4.8
		c-0.2-1.7-0.5-3.1-1-4.8c-0.5-1.4-1-2.9-1.9-4.1c-1-1.2-1.9-2.2-3.1-2.9c-1.2-0.7-2.9-1-4.8-1s-3.4,0.2-4.8,1
		c-1.2,0.7-2.4,1.7-3.1,2.9c-1,1.2-1.4,2.4-1.9,4.1c-0.5,1.4-0.7,3.1-1,4.8c-0.2,1.7-0.2,3.1-0.5,4.8v4.3
		C268,157.4,268,159.8,268,162.2L268,162.2z M336.8,91.5v-39h-14.1v-5.3c1.9,0,3.6-0.2,5.3-0.5c1.7-0.2,3.4-0.7,4.8-1.7
		c1.4-0.7,2.6-1.9,3.6-3.1c1-1.4,1.7-3.1,1.9-5h5v54.4h-6.5V91.5z M374.1,91.5v-39H360v-5.3c1.9,0,3.6-0.2,5.3-0.5s3.4-0.7,4.8-1.7
		c1.4-0.7,2.6-1.9,3.6-3.1c1-1.4,1.7-3.1,1.9-5h5v54.4h-6.5V91.5z"/>
</g>
</svg>
